<svg width="570" height="220" viewBox="0 0 570 220" fill="none" xmlns="http://www.w3.org/2000/svg">
<g clip-path="url(#clip0_441_4434)">
<rect width="569.097" height="220" rx="28.3871" fill="url(#paint0_linear_441_4434)"/>
<g filter="url(#filter0_d_441_4434)">
<path d="M120.726 151.5V68.9194H138.185V105.331H139.274L168.992 68.9194H189.919L159.274 105.895L190.282 151.5H169.395L146.774 117.548L138.185 128.032V151.5H120.726ZM199.012 68.9194H220.544L243.286 124.403H244.254L266.996 68.9194H288.528V151.5H271.593V97.75H270.907L249.536 151.097H238.004L216.633 97.5484H215.948V151.5H199.012V68.9194ZM375.776 97.8306H358.115C357.792 95.5457 357.134 93.5161 356.139 91.7419C355.144 89.9409 353.868 88.4086 352.308 87.1452C350.749 85.8817 348.948 84.914 346.905 84.2419C344.889 83.5699 342.698 83.2339 340.333 83.2339C336.058 83.2339 332.335 84.2957 329.163 86.4194C325.991 88.5161 323.532 91.5806 321.784 95.6129C320.037 99.6183 319.163 104.484 319.163 110.21C319.163 116.097 320.037 121.043 321.784 125.048C323.558 129.054 326.032 132.078 329.204 134.121C332.376 136.164 336.045 137.185 340.212 137.185C342.55 137.185 344.714 136.876 346.704 136.258C348.72 135.64 350.507 134.739 352.066 133.556C353.626 132.347 354.916 130.882 355.937 129.161C356.986 127.441 357.712 125.478 358.115 123.274L375.776 123.355C375.319 127.145 374.177 130.801 372.349 134.323C370.548 137.817 368.115 140.949 365.05 143.718C362.013 146.46 358.384 148.637 354.163 150.25C349.97 151.836 345.225 152.629 339.929 152.629C332.564 152.629 325.978 150.962 320.171 147.629C314.392 144.296 309.822 139.47 306.462 133.153C303.128 126.836 301.462 119.188 301.462 110.21C301.462 101.204 303.155 93.543 306.542 87.2258C309.929 80.9086 314.526 76.0968 320.333 72.7903C326.139 69.457 332.671 67.7903 339.929 67.7903C344.714 67.7903 349.15 68.4624 353.236 69.8065C357.349 71.1505 360.991 73.1129 364.163 75.6935C367.335 78.2473 369.916 81.379 371.905 85.0887C373.921 88.7984 375.212 93.0457 375.776 97.8306ZM388.296 151.5V68.9194H420.877C427.14 68.9194 432.476 70.1156 436.885 72.5081C441.294 74.8737 444.654 78.1667 446.966 82.3871C449.304 86.5806 450.474 91.4194 450.474 96.9032C450.474 102.387 449.291 107.226 446.925 111.419C444.56 115.613 441.132 118.879 436.643 121.218C432.181 123.556 426.777 124.726 420.433 124.726H399.667V110.734H417.611C420.971 110.734 423.74 110.156 425.917 109C428.122 107.817 429.761 106.191 430.837 104.121C431.939 102.024 432.49 99.6183 432.49 96.9032C432.49 94.1613 431.939 91.7688 430.837 89.7258C429.761 87.6559 428.122 86.0564 425.917 84.9274C423.713 83.7715 420.917 83.1935 417.53 83.1935H405.756V151.5H388.296Z" fill="white"/>
</g>
</g>
<defs>
<filter id="filter0_d_441_4434" x="10.7258" y="-35.1129" width="549.748" height="304.839" filterUnits="userSpaceOnUse" color-interpolation-filters="sRGB">
<feFlood flood-opacity="0" result="BackgroundImageFix"/>
<feColorMatrix in="SourceAlpha" type="matrix" values="0 0 0 0 0 0 0 0 0 0 0 0 0 0 0 0 0 0 127 0" result="hardAlpha"/>
<feOffset dy="7.09677"/>
<feGaussianBlur stdDeviation="55"/>
<feComposite in2="hardAlpha" operator="out"/>
<feColorMatrix type="matrix" values="0 0 0 0 0 0 0 0 0 0 0 0 0 0 0 0 0 0 0.45 0"/>
<feBlend mode="normal" in2="BackgroundImageFix" result="effect1_dropShadow_441_4434"/>
<feBlend mode="normal" in="SourceGraphic" in2="effect1_dropShadow_441_4434" result="shape"/>
</filter>
<linearGradient id="paint0_linear_441_4434" x1="16.3396" y1="-5.5346" x2="786.065" y2="364.077" gradientUnits="userSpaceOnUse">
<stop stop-color="#7F52FF"/>
<stop offset="0.625" stop-color="#CE20C7"/>
</linearGradient>
<clipPath id="clip0_441_4434">
<rect width="569.097" height="220" rx="28.3871" fill="white"/>
</clipPath>
</defs>
</svg>
