<svg width="582" height="157" viewBox="0 0 582 157" fill="none" xmlns="http://www.w3.org/2000/svg">
<g clip-path="url(#clip0_445_4434)">
<path d="M236.25 132V75.5316H251.176V85.4945H251.837C253.014 82.1858 254.975 79.5756 257.72 77.6639C260.465 75.7522 263.749 74.7963 267.572 74.7963C271.444 74.7963 274.741 75.7644 277.461 77.7006C280.182 79.6123 281.996 82.2103 282.902 85.4945H283.491C284.642 82.2593 286.726 79.6736 289.74 77.7374C292.779 75.7767 296.37 74.7963 300.512 74.7963C305.781 74.7963 310.058 76.4752 313.342 79.8329C316.651 83.1661 318.305 87.8963 318.305 94.0235V132H302.681V97.1116C302.681 93.9745 301.848 91.6217 300.181 90.0531C298.514 88.4845 296.431 87.7002 293.931 87.7002C291.088 87.7002 288.87 88.6071 287.277 90.4207C285.684 92.2099 284.888 94.575 284.888 97.516V132H269.704V96.7808C269.704 94.0113 268.908 91.8055 267.315 90.1634C265.746 88.5213 263.675 87.7002 261.102 87.7002C259.362 87.7002 257.793 88.1414 256.396 89.0237C255.024 89.8815 253.933 91.0947 253.124 92.6633C252.315 94.2073 251.911 96.021 251.911 98.1043V132H236.25ZM356.19 133.103C350.406 133.103 345.431 131.877 341.264 129.427C337.122 126.951 333.936 123.52 331.706 119.133C329.5 114.746 328.397 109.697 328.397 103.986C328.397 98.2023 329.512 93.129 331.742 88.7664C333.997 84.3793 337.196 80.9603 341.338 78.5094C345.48 76.034 350.406 74.7963 356.116 74.7963C361.043 74.7963 365.356 75.6909 369.057 77.4801C372.758 79.2692 375.687 81.7814 377.844 85.0165C380 88.2517 381.189 92.0506 381.41 96.4131H366.631C366.214 93.5946 365.111 91.3276 363.322 89.6119C361.557 87.8718 359.241 87.0017 356.374 87.0017C353.947 87.0017 351.827 87.6635 350.014 88.987C348.225 90.2859 346.828 92.1854 345.823 94.6853C344.818 97.1852 344.315 100.212 344.315 103.766C344.315 107.369 344.806 110.432 345.786 112.957C346.791 115.481 348.2 117.405 350.014 118.728C351.827 120.052 353.947 120.714 356.374 120.714C358.163 120.714 359.768 120.346 361.19 119.611C362.636 118.876 363.824 117.809 364.756 116.412C365.712 114.991 366.337 113.287 366.631 111.302H381.41C381.164 115.616 379.988 119.415 377.88 122.699C375.797 125.959 372.917 128.507 369.241 130.346C365.565 132.184 361.214 133.103 356.19 133.103ZM391.437 153.176V75.5316H406.877V85.0165H407.576C408.262 83.497 409.255 81.9529 410.554 80.3844C411.877 78.7913 413.593 77.4678 415.701 76.4139C417.833 75.3355 420.48 74.7963 423.641 74.7963C427.759 74.7963 431.558 75.8747 435.038 78.0315C438.518 80.1638 441.3 83.3867 443.383 87.7002C445.467 91.9893 446.508 97.369 446.508 103.839C446.508 110.138 445.491 115.457 443.457 119.795C441.447 124.108 438.702 127.38 435.222 129.61C431.766 131.816 427.894 132.919 423.605 132.919C420.566 132.919 417.98 132.417 415.848 131.412C413.74 130.407 412.012 129.145 410.664 127.625C409.316 126.081 408.287 124.525 407.576 122.956H407.098V153.176H391.437ZM406.767 103.766C406.767 107.124 407.233 110.052 408.164 112.552C409.095 115.052 410.443 117.001 412.208 118.398C413.973 119.77 416.117 120.456 418.642 120.456C421.19 120.456 423.347 119.758 425.112 118.361C426.877 116.939 428.212 114.979 429.119 112.479C430.05 109.954 430.516 107.05 430.516 103.766C430.516 100.506 430.063 97.6386 429.156 95.1632C428.249 92.6878 426.913 90.7516 425.149 89.3546C423.384 87.9576 421.215 87.2591 418.642 87.2591C416.093 87.2591 413.936 87.9331 412.171 89.2811C410.431 90.6291 409.095 92.5407 408.164 95.0161C407.233 97.4915 406.767 100.408 406.767 103.766ZM455.662 118.765V106.229L487.095 56.7088H497.903V74.0611H491.506L471.691 105.42V106.008H516.358V118.765H455.662ZM491.801 132V114.942L492.095 109.391V56.7088H507.021V132H491.801ZM541.302 115.751L541.339 96.9646H543.618L561.706 75.5316H579.683L555.383 103.913H551.67L541.302 115.751ZM527.112 132V56.7088H542.773V132H527.112ZM562.404 132L545.787 107.405L556.228 96.3396L580.749 132H562.404Z" fill="url(#paint0_linear_445_4434)"/>
<mask id="mask0_445_4434" style="mask-type:alpha" maskUnits="userSpaceOnUse" x="27" y="74" width="90" height="90">
<rect x="27.1907" y="74.0356" width="89.2769" height="89.2769" fill="#CC23C9"/>
</mask>
<g mask="url(#mask0_445_4434)">
<path d="M38.6291 114.697L53.1794 100.146C53.9761 99.3504 54.9039 98.784 55.9628 98.4474C57.0211 98.1114 58.1107 98.0552 59.2316 98.2791L65.999 99.5457C62.8749 103.127 60.3247 106.489 58.3482 109.632C56.3711 112.775 54.4956 116.473 52.7219 120.728L38.6291 114.697ZM55.6262 121.793C57.3478 117.649 59.4139 113.72 61.8244 110.008C64.2355 106.295 66.9457 102.934 69.9551 99.9251C75.0055 94.8748 80.646 91.0963 86.8768 88.5897C93.1076 86.0838 99.3204 85.1789 105.515 85.8751C106.211 92.07 105.316 98.2828 102.829 104.514C100.342 110.744 96.5733 116.385 91.5229 121.435C88.5136 124.445 85.143 127.149 81.4114 129.547C77.6797 131.946 73.7416 134.006 69.5971 135.728L55.6262 121.793ZM80.6135 110.741C81.7344 111.862 83.1139 112.422 84.7518 112.422C86.3898 112.422 87.7693 111.862 88.8902 110.741C90.0111 109.62 90.5716 108.247 90.5716 106.621C90.5716 104.995 90.0111 103.621 88.8902 102.5C87.7693 101.379 86.3898 100.819 84.7518 100.819C83.1139 100.819 81.7344 101.379 80.6135 102.5C79.4926 103.621 78.9321 104.995 78.9321 106.621C78.9321 108.247 79.4926 109.62 80.6135 110.741ZM76.6788 152.761L70.5912 138.669C74.8455 136.894 78.5381 135.013 81.669 133.025C84.7999 131.036 88.1679 128.479 91.7731 125.356L93.0388 132.122C93.2632 133.243 93.2133 134.343 92.8891 135.421C92.5648 136.499 92.0044 137.436 91.2077 138.232L76.6788 152.761ZM44.2945 133.918C46.1073 132.106 48.3073 131.197 50.8945 131.19C53.4816 131.182 55.6813 132.085 57.4935 133.897C59.3057 135.709 60.2118 137.909 60.2118 140.496C60.2118 143.083 59.3057 145.283 57.4935 147.095C56.0484 148.54 53.7997 149.748 50.7475 150.718C47.6954 151.689 43.5177 152.496 38.2144 153.14C38.8585 147.837 39.6716 143.669 40.6537 140.635C41.6363 137.602 42.8499 135.363 44.2945 133.918Z" fill="#CC23C9"/>
</g>
<mask id="mask1_445_4434" style="mask-type:alpha" maskUnits="userSpaceOnUse" x="95" y="-8" width="72" height="72">
<rect x="104.687" y="-8" width="62.6482" height="62.6482" transform="rotate(8.26582 104.687 -8)" fill="#8053FF"/>
</mask>
<g mask="url(#mask1_445_4434)">
<path d="M116.507 43.6313L121.706 30.3708L112.395 19.5988L126.6 20.4195L133.975 8.27705L137.589 22.0159L151.441 25.2713L139.45 32.9486L140.66 47.1401L129.642 38.0984L116.507 43.6313Z" fill="#5F2DEC"/>
</g>
<mask id="mask2_445_4434" style="mask-type:alpha" maskUnits="userSpaceOnUse" x="126" y="52" width="59" height="58">
<rect x="144.766" y="52.2355" width="43.6004" height="43.6004" transform="rotate(24.2636 144.766 52.2355)" fill="#5F2DEC"/>
</mask>
<g mask="url(#mask2_445_4434)">
<path d="M140.753 90.2041L147.732 81.0562L142.901 70.613L153.769 74.4199L162.192 66.6245L161.93 78.0981L171.98 83.7203L160.956 87.0169L158.723 98.3041L152.182 88.8333L140.753 90.2041Z" fill="#5F2DEC"/>
</g>
<mask id="mask3_445_4434" style="mask-type:alpha" maskUnits="userSpaceOnUse" x="71" y="39" width="43" height="43">
<rect x="71.8296" y="47.3269" width="34.9782" height="34.9782" transform="rotate(-12.4628 71.8296 47.3269)" fill="#5F2DEC"/>
</mask>
<g mask="url(#mask3_445_4434)">
<path d="M88.2045 71.9517L88.2987 63.9999L81.3078 60.215L88.888 57.8363L90.3393 50.0383L94.9418 56.4983L102.818 55.4608L98.0738 61.8395L101.51 69.0109L93.9702 66.4668L88.2045 71.9517Z" fill="#5F2DEC"/>
</g>
<mask id="mask4_445_4434" style="mask-type:alpha" maskUnits="userSpaceOnUse" x="22" y="24" width="54" height="55">
<rect x="22" y="43.8033" width="39.448" height="39.448" transform="rotate(-29.7868 22 43.8033)" fill="#5F2DEC"/>
</mask>
<g mask="url(#mask4_445_4434)">
<path d="M47.6786 66.9099L44.6851 56.9396L34.4701 54.9308L43.0314 48.9924L41.7956 38.6826L50.0598 44.9694L59.516 40.5945L56.075 50.42L63.1562 58.0506L52.7449 57.8113L47.6786 66.9099Z" fill="#5F2DEC"/>
</g>
</g>
<defs>
<linearGradient id="paint0_linear_445_4434" x1="582" y1="94.5" x2="230" y2="94.5" gradientUnits="userSpaceOnUse">
<stop offset="0.16" stop-color="#CC23C9"/>
<stop offset="1" stop-color="#5F2DEC"/>
</linearGradient>
<clipPath id="clip0_445_4434">
<rect width="582" height="157" rx="23.1187" fill="white"/>
</clipPath>
</defs>
</svg>
