<svg width="714" height="220" viewBox="0 0 714 220" fill="none" xmlns="http://www.w3.org/2000/svg">
<g filter="url(#filter0_d_445_4434)">
<path d="M327.795 145V92.6364H341.636V101.875H342.25C343.341 98.8068 345.159 96.3864 347.705 94.6136C350.25 92.8409 353.295 91.9545 356.841 91.9545C360.432 91.9545 363.489 92.8523 366.011 94.6477C368.534 96.4205 370.216 98.8295 371.057 101.875H371.602C372.67 98.875 374.602 96.4773 377.398 94.6818C380.216 92.8636 383.545 91.9545 387.386 91.9545C392.273 91.9545 396.239 93.5114 399.284 96.625C402.352 99.7159 403.886 104.102 403.886 109.784V145H389.398V112.648C389.398 109.739 388.625 107.557 387.08 106.102C385.534 104.648 383.602 103.92 381.284 103.92C378.648 103.92 376.591 104.761 375.114 106.443C373.636 108.102 372.898 110.295 372.898 113.023V145H358.818V112.341C358.818 109.773 358.08 107.727 356.602 106.205C355.148 104.682 353.227 103.92 350.841 103.92C349.227 103.92 347.773 104.33 346.477 105.148C345.205 105.943 344.193 107.068 343.443 108.523C342.693 109.955 342.318 111.636 342.318 113.568V145H327.795ZM439.017 146.023C433.653 146.023 429.04 144.886 425.176 142.614C421.335 140.318 418.381 137.136 416.312 133.068C414.267 129 413.244 124.318 413.244 119.023C413.244 113.659 414.278 108.955 416.347 104.909C418.438 100.841 421.403 97.6705 425.244 95.3977C429.085 93.1023 433.653 91.9545 438.949 91.9545C443.517 91.9545 447.517 92.7841 450.949 94.4432C454.381 96.1023 457.097 98.4318 459.097 101.432C461.097 104.432 462.199 107.955 462.403 112H448.699C448.313 109.386 447.29 107.284 445.631 105.693C443.994 104.08 441.847 103.273 439.188 103.273C436.938 103.273 434.972 103.886 433.29 105.114C431.631 106.318 430.335 108.08 429.403 110.398C428.472 112.716 428.006 115.523 428.006 118.818C428.006 122.159 428.46 125 429.369 127.341C430.301 129.682 431.608 131.466 433.29 132.693C434.972 133.92 436.938 134.534 439.188 134.534C440.847 134.534 442.335 134.193 443.653 133.511C444.994 132.83 446.097 131.841 446.96 130.545C447.847 129.227 448.426 127.648 448.699 125.807H462.403C462.176 129.807 461.085 133.33 459.131 136.375C457.199 139.398 454.528 141.761 451.119 143.466C447.71 145.17 443.676 146.023 439.017 146.023ZM471.702 164.636V92.6364H486.02V101.432H486.668C487.304 100.023 488.224 98.5909 489.429 97.1364C490.656 95.6591 492.247 94.4318 494.202 93.4545C496.179 92.4545 498.634 91.9545 501.565 91.9545C505.384 91.9545 508.906 92.9545 512.134 94.9545C515.361 96.9318 517.94 99.9205 519.872 103.92C521.804 107.898 522.77 112.886 522.77 118.886C522.77 124.727 521.827 129.659 519.94 133.682C518.077 137.682 515.531 140.716 512.304 142.784C509.099 144.83 505.509 145.852 501.531 145.852C498.713 145.852 496.315 145.386 494.338 144.455C492.384 143.523 490.781 142.352 489.531 140.943C488.281 139.511 487.327 138.068 486.668 136.614H486.224V164.636H471.702ZM485.918 118.818C485.918 121.932 486.349 124.648 487.213 126.966C488.077 129.284 489.327 131.091 490.963 132.386C492.599 133.659 494.588 134.295 496.929 134.295C499.293 134.295 501.293 133.648 502.929 132.352C504.565 131.034 505.804 129.216 506.645 126.898C507.509 124.557 507.94 121.864 507.94 118.818C507.94 115.795 507.52 113.136 506.679 110.841C505.838 108.545 504.599 106.75 502.963 105.455C501.327 104.159 499.315 103.511 496.929 103.511C494.565 103.511 492.565 104.136 490.929 105.386C489.315 106.636 488.077 108.409 487.213 110.705C486.349 113 485.918 115.705 485.918 118.818ZM531.259 132.727V121.102L560.406 75.1818H570.429V91.2727H564.497L546.122 120.352V120.898H587.543V132.727H531.259ZM564.77 145V129.182L565.043 124.034V75.1818H578.884V145H564.77ZM610.673 129.932L610.707 112.511H612.821L629.594 92.6364H646.264L623.73 118.955H620.287L610.673 129.932ZM597.514 145V75.1818H612.037V145H597.514ZM630.241 145L614.832 122.193L624.514 111.932L647.253 145H630.241Z" fill="url(#paint0_linear_445_4434)"/>
</g>
<mask id="mask0_445_4434" style="mask-type:alpha" maskUnits="userSpaceOnUse" x="112" y="88" width="86" height="87">
<rect x="112" y="88.0245" width="86" height="86" fill="#CC23C9"/>
</mask>
<g mask="url(#mask0_445_4434)">
<path d="M123.019 127.193L137.035 113.177C137.802 112.41 138.696 111.864 139.716 111.54C140.736 111.217 141.785 111.162 142.865 111.378L149.384 112.598C146.375 116.048 143.918 119.287 142.014 122.314C140.109 125.342 138.303 128.904 136.594 133.003L123.019 127.193ZM139.392 134.029C141.05 130.037 143.041 126.252 145.363 122.676C147.685 119.1 150.296 115.862 153.195 112.964C158.06 108.099 163.493 104.459 169.495 102.044C175.498 99.6304 181.482 98.7587 187.45 99.4294C188.12 105.397 187.258 111.382 184.862 117.384C182.466 123.386 178.836 128.819 173.971 133.684C171.072 136.583 167.825 139.188 164.231 141.499C160.636 143.809 156.842 145.794 152.85 147.452L139.392 134.029ZM163.462 123.382C164.542 124.462 165.871 125.002 167.448 125.002C169.026 125.002 170.355 124.462 171.435 123.382C172.515 122.303 173.055 120.98 173.055 119.414C173.055 117.847 172.515 116.524 171.435 115.444C170.355 114.364 169.026 113.825 167.448 113.825C165.871 113.825 164.542 114.364 163.462 115.444C162.382 116.524 161.842 117.847 161.842 119.414C161.842 120.98 162.382 122.303 163.462 123.382ZM159.672 163.86L153.808 150.285C157.906 148.576 161.463 146.763 164.479 144.848C167.495 142.932 170.739 140.47 174.212 137.461L175.431 143.979C175.647 145.059 175.599 146.118 175.287 147.157C174.975 148.195 174.435 149.097 173.667 149.865L159.672 163.86ZM128.476 145.709C130.222 143.963 132.342 143.087 134.834 143.081C137.326 143.074 139.445 143.943 141.191 145.688C142.936 147.434 143.809 149.553 143.809 152.045C143.809 154.538 142.936 156.656 141.191 158.402C139.799 159.794 137.632 160.958 134.692 161.892C131.752 162.828 127.728 163.605 122.619 164.225C123.24 159.117 124.023 155.102 124.969 152.18C125.916 149.258 127.085 147.101 128.476 145.709Z" fill="#CC23C9"/>
</g>
<mask id="mask1_445_4434" style="mask-type:alpha" maskUnits="userSpaceOnUse" x="177" y="9" width="70" height="69">
<rect x="186.651" y="9" width="60.3486" height="60.3486" transform="rotate(8.26582 186.651 9)" fill="#8053FF"/>
</mask>
<g mask="url(#mask1_445_4434)">
<path d="M198.038 58.7361L203.046 45.9624L194.077 35.5857L207.761 36.3763L214.865 24.6795L218.346 37.9141L231.69 41.05L220.139 48.4455L221.305 62.1161L210.691 53.4063L198.038 58.7361Z" fill="#5F2DEC"/>
</g>
<mask id="mask2_445_4434" style="mask-type:alpha" maskUnits="userSpaceOnUse" x="208" y="67" width="56" height="56">
<rect x="225.259" y="67.0245" width="42" height="42" transform="rotate(24.2636 225.259 67.0245)" fill="#5F2DEC"/>
</mask>
<g mask="url(#mask2_445_4434)">
<path d="M221.394 103.6L228.117 94.7875L223.463 84.7276L233.933 88.3948L242.046 80.8855L241.793 91.938L251.475 97.3538L240.855 100.529L238.704 111.402L232.403 102.279L221.394 103.6Z" fill="#5F2DEC"/>
</g>
<mask id="mask3_445_4434" style="mask-type:alpha" maskUnits="userSpaceOnUse" x="155" y="55" width="41" height="41">
<rect x="155" y="62.2959" width="33.6943" height="33.6943" transform="rotate(-12.4628 155 62.2959)" fill="#5F2DEC"/>
</mask>
<g mask="url(#mask3_445_4434)">
<path d="M170.775 86.0172L170.865 78.3573L164.131 74.7113L171.433 72.4199L172.831 64.9082L177.265 71.131L184.852 70.1317L180.282 76.2762L183.592 83.1843L176.329 80.7336L170.775 86.0172Z" fill="#5F2DEC"/>
</g>
<mask id="mask4_445_4434" style="mask-type:alpha" maskUnits="userSpaceOnUse" x="107" y="40" width="52" height="52">
<rect x="107" y="58.902" width="38" height="38" transform="rotate(-29.7868 107 58.902)" fill="#5F2DEC"/>
</mask>
<g mask="url(#mask4_445_4434)">
<path d="M131.736 81.1604L128.852 71.556L119.012 69.6209L127.259 63.9006L126.069 53.9691L134.03 60.0252L143.139 55.8109L139.824 65.2757L146.645 72.6262L136.616 72.3957L131.736 81.1604Z" fill="#5F2DEC"/>
</g>
<defs>
<filter id="filter0_d_445_4434" x="320.795" y="70.1818" width="335.458" height="105.455" filterUnits="userSpaceOnUse" color-interpolation-filters="sRGB">
<feFlood flood-opacity="0" result="BackgroundImageFix"/>
<feColorMatrix in="SourceAlpha" type="matrix" values="0 0 0 0 0 0 0 0 0 0 0 0 0 0 0 0 0 0 127 0" result="hardAlpha"/>
<feOffset dx="1" dy="3"/>
<feGaussianBlur stdDeviation="4"/>
<feComposite in2="hardAlpha" operator="out"/>
<feColorMatrix type="matrix" values="0 0 0 0 0 0 0 0 0 0 0 0 0 0 0 0 0 0 0.1 0"/>
<feBlend mode="normal" in2="BackgroundImageFix" result="effect1_dropShadow_445_4434"/>
<feBlend mode="normal" in="SourceGraphic" in2="effect1_dropShadow_445_4434" result="shape"/>
</filter>
<linearGradient id="paint0_linear_445_4434" x1="322" y1="110" x2="648" y2="110" gradientUnits="userSpaceOnUse">
<stop offset="0.15" stop-color="#CC23C9"/>
<stop offset="0.955" stop-color="#5F2DEC"/>
</linearGradient>
</defs>
</svg>
